<svg width="40" height="42" viewBox="0 0 40 42" fill="none" xmlns="http://www.w3.org/2000/svg">
<path d="M39.5 21C39.5 32.3451 30.7468 41.5 20 41.5C9.25316 41.5 0.5 32.3451 0.5 21C0.5 9.65489 9.25316 0.5 20 0.5C30.7468 0.5 39.5 9.65489 39.5 21Z" stroke="white"/>
<path d="M24.2792 22.9031L24.8496 18.9126H21.2831V16.323C21.2831 15.2313 21.7813 14.1671 23.3786 14.1671H25V10.7696C25 10.7696 23.5286 10.5 22.1218 10.5C19.1847 10.5 17.2649 12.4113 17.2649 15.8712V18.9126H14V22.9031H17.2649V32.55H21.2831V22.9031H24.2792Z" fill="white"/>
</svg>
