<svg width="40" height="42" viewBox="0 0 40 42" fill="none" xmlns="http://www.w3.org/2000/svg">
<path d="M20.002 16.1543C17.4481 16.1543 15.3881 18.3178 15.3881 21C15.3881 23.6822 17.4481 25.8457 20.002 25.8457C22.5559 25.8457 24.616 23.6822 24.616 21C24.616 18.3178 22.5559 16.1543 20.002 16.1543ZM20.002 24.1503C18.3516 24.1503 17.0023 22.7375 17.0023 21C17.0023 19.2624 18.3476 17.8496 20.002 17.8496C21.6564 17.8496 23.0017 19.2624 23.0017 21C23.0017 22.7375 21.6524 24.1503 20.002 24.1503V24.1503ZM25.8809 15.9561C25.8809 16.5844 25.399 17.0863 24.8047 17.0863C24.2064 17.0863 23.7285 16.5802 23.7285 15.9561C23.7285 15.3319 24.2104 14.8258 24.8047 14.8258C25.399 14.8258 25.8809 15.3319 25.8809 15.9561ZM28.9368 17.1032C28.8685 15.5891 28.5392 14.248 27.4831 13.1431C26.431 12.0381 25.154 11.6923 23.7124 11.6164C22.2267 11.5278 17.7733 11.5278 16.2876 11.6164C14.85 11.6881 13.573 12.0339 12.5169 13.1389C11.4608 14.2438 11.1355 15.5849 11.0632 17.099C10.9789 18.6594 10.9789 23.3364 11.0632 24.8968C11.1315 26.4108 11.4608 27.7519 12.5169 28.8569C13.573 29.9618 14.846 30.3077 16.2876 30.3836C17.7733 30.4721 22.2267 30.4721 23.7124 30.3836C25.154 30.3119 26.431 29.966 27.4831 28.8569C28.5352 27.7519 28.8645 26.4108 28.9368 24.8968C29.0211 23.3364 29.0211 18.6636 28.9368 17.1032V17.1032ZM27.0173 26.5711C26.7041 27.3977 26.0977 28.0345 25.3066 28.3677C24.122 28.8611 21.3111 28.7472 20.002 28.7472C18.6929 28.7472 15.878 28.8569 14.6974 28.3677C13.9103 28.0387 13.304 27.4019 12.9867 26.5711C12.5169 25.327 12.6253 22.3748 12.6253 21C12.6253 19.6251 12.5209 16.6688 12.9867 15.4289C13.2999 14.6023 13.9063 13.9655 14.6974 13.6323C15.882 13.1389 18.6929 13.2527 20.002 13.2527C21.3111 13.2527 24.126 13.1431 25.3066 13.6323C26.0937 13.9613 26.7001 14.5981 27.0173 15.4289C27.4871 16.673 27.3787 19.6251 27.3787 21C27.3787 22.3748 27.4871 25.3312 27.0173 26.5711Z" fill="white"/>
<path d="M39.5 21C39.5 32.3451 30.7468 41.5 20 41.5C9.25316 41.5 0.5 32.3451 0.5 21C0.5 9.65489 9.25316 0.5 20 0.5C30.7468 0.5 39.5 9.65489 39.5 21Z" stroke="white"/>
</svg>
