<svg width="40" height="42" viewBox="0 0 40 42" fill="none" xmlns="http://www.w3.org/2000/svg">
<path d="M39.5 21C39.5 32.3451 30.7468 41.5 20 41.5C9.25316 41.5 0.5 32.3451 0.5 21C0.5 9.65489 9.25316 0.5 20 0.5C30.7468 0.5 39.5 9.65489 39.5 21Z" stroke="white"/>
<path d="M27.1498 17.3135C27.1612 17.4743 27.1612 17.6351 27.1612 17.7959C27.1612 22.6997 23.4493 28.35 16.665 28.35C14.5749 28.35 12.6333 27.7413 11 26.6848C11.297 26.7192 11.5825 26.7307 11.8909 26.7307C13.6155 26.7307 15.2031 26.145 16.4708 25.1459C14.849 25.1114 13.4898 24.0434 13.0216 22.5734C13.25 22.6078 13.4784 22.6308 13.7183 22.6308C14.0495 22.6308 14.3807 22.5848 14.6891 22.5045C12.9987 22.1599 11.7309 20.6669 11.7309 18.8639V18.818C12.222 19.0936 12.7932 19.2659 13.3984 19.2888C12.4048 18.6227 11.7538 17.4858 11.7538 16.1995C11.7538 15.5104 11.9365 14.8788 12.2563 14.3276C14.0723 16.5785 16.802 18.0485 19.8629 18.2093C19.8058 17.9336 19.7716 17.6466 19.7716 17.3595C19.7716 15.3152 21.4162 13.65 23.4607 13.65C24.5228 13.65 25.4822 14.0979 26.1561 14.8214C26.9898 14.6606 27.7893 14.3505 28.4975 13.9256C28.2233 14.787 27.6409 15.5105 26.8756 15.9698C27.618 15.8895 28.3376 15.6827 29 15.3956C28.4975 16.1306 27.8693 16.7852 27.1498 17.3135Z" fill="white"/>
</svg>
